<svg width="64" height="41" fill="none" xmlns="http://www.w3.org/2000/svg"><path d="M61.119 8.924a12.235 12.235 0 0 0-3.75-6.036C53.422-.56 48.265-.704 42.313 1.314c-1.14.38-2.333.572-3.531.567H24.57a10.973 10.973 0 0 1-3.527-.567C15.09-.704 9.935-.56 5.987 2.888a12.27 12.27 0 0 0-3.753 6.036C-.82 20.187-.86 29.862 2.84 37.584c1.683 3.494 4.29 4.138 7.565 2.7a12.251 12.251 0 0 0 2.673-1.634 22.796 22.796 0 0 0 5.813-6.902c.255-.474.503-.956.709-1.46 1.65-3.63 4.158-5.716 7.982-5.31l4.096.085 4.092-.085c3.837-.389 6.312 1.697 7.986 5.31.223.487.454.97.71 1.443a22.74 22.74 0 0 0 5.812 6.92c.821.658 1.72 1.207 2.673 1.633 3.276 1.438 5.883.794 7.566-2.7 3.7-7.722 3.646-17.397.602-28.66zm-47.034 13.26a7.526 7.526 0 0 1-4.282-1.342 7.917 7.917 0 0 1-2.84-3.575 8.223 8.223 0 0 1-.44-4.605A8.057 8.057 0 0 1 8.63 8.581a7.63 7.63 0 0 1 3.945-2.182 7.47 7.47 0 0 1 4.453.452 7.768 7.768 0 0 1 3.458 2.935 8.164 8.164 0 0 1 1.3 4.428 8.114 8.114 0 0 1-2.257 5.632 7.584 7.584 0 0 1-5.445 2.337zm16.01-.035H26.51v-1.642h3.584v1.642zm6.752 0h-3.585v-1.642h3.585v1.642zM47.407 7.03a2.986 2.986 0 0 1 2.145-.918c.804 0 1.576.33 2.145.918.424.439.712.997.829 1.606a3.235 3.235 0 0 1-.173 1.81 3.115 3.115 0 0 1-1.117 1.408 2.961 2.961 0 0 1-1.684.528c-.6 0-1.185-.184-1.684-.528a3.115 3.115 0 0 1-1.117-1.407 3.235 3.235 0 0 1-.173-1.811 3.17 3.17 0 0 1 .83-1.606zm-4.834 9.432a3.192 3.192 0 0 1-.889-2.218c0-.832.32-1.63.889-2.218a2.983 2.983 0 0 1 2.145-.92c.804 0 1.576.331 2.145.92.281.291.505.637.657 1.018a3.231 3.231 0 0 1 0 2.4 3.142 3.142 0 0 1-.657 1.018 3.03 3.03 0 0 1-.985.68 2.946 2.946 0 0 1-1.16.24 2.984 2.984 0 0 1-2.146-.92zm9.075 4.94a2.966 2.966 0 0 1-3.845.399 3.14 3.14 0 0 1-1.225-1.703 3.249 3.249 0 0 1 .099-2.12c.27-.673.756-1.23 1.377-1.573a2.956 2.956 0 0 1 2.03-.312 3.028 3.028 0 0 1 1.76 1.092c.447.564.691 1.27.69 2 0 .412-.078.82-.232 1.201a3.138 3.138 0 0 1-.663 1.017h.009zm4.834-5a3.007 3.007 0 0 1-1.554.86c-.59.12-1.2.059-1.754-.179a3.061 3.061 0 0 1-1.363-1.156 3.216 3.216 0 0 1-.511-1.745c0-.62.178-1.228.511-1.744a3.06 3.06 0 0 1 1.363-1.157 2.943 2.943 0 0 1 1.754-.178c.589.12 1.13.42 1.554.859a3.2 3.2 0 0 1 .884 2.222 3.2 3.2 0 0 1-.892 2.219h.008z" fill="#61A568"/></svg>